<svg width="142" height="82" viewBox="0 0 142 82" fill="none" xmlns="http://www.w3.org/2000/svg">
<path d="M32.0347 17.256L47.2027 17.704C47.9707 17.704 48.9307 17.5333 50.0827 17.192C51.2774 16.808 52.0667 16.616 52.4507 16.616C52.8347 16.616 53.1334 16.744 53.3467 17C53.6028 17.2133 53.7308 17.4907 53.7308 17.832C53.7308 18.728 53.3254 19.496 52.5147 20.136C51.7041 20.7333 50.6374 21.16 49.3148 21.416C46.8401 21.9707 44.6427 22.248 42.7227 22.248C40.1201 24.04 37.5814 29.2027 35.1068 37.736C39.3307 37.736 41.9547 37.8 42.9787 37.928L42.8507 40.936C42.2107 40.9787 41.2507 41 39.9707 41L34.1467 40.808C31.7574 48.104 28.5361 53.9067 24.4827 58.216C20.4294 62.5253 16.1414 64.68 11.6187 64.68C8.84541 64.68 6.60541 63.848 4.89875 62.184C3.19208 60.52 2.33875 58.3227 2.33875 55.592C2.33875 51.1973 4.96275 47.208 10.2107 43.624C15.4587 39.9973 21.9227 38.0773 29.6027 37.864C32.2054 29.672 35.2561 24.4667 38.7547 22.248L28.4507 21.864C24.1414 21.864 20.9201 22.4187 18.7867 23.528C16.6961 24.6373 15.6507 26.1093 15.6507 27.944C15.6507 28.9253 16.0561 29.7573 16.8667 30.44C17.6774 31.08 18.4881 31.4 19.2987 31.4C20.1094 31.4 20.7067 31.3787 21.0907 31.336C21.5174 31.2507 22.0294 31.1013 22.6267 30.888C23.2667 30.632 23.7147 30.4613 23.9707 30.376C24.8667 30.0773 25.9547 29.608 27.2347 28.968L28.5787 30.632C25.3361 33.8747 21.7947 35.496 17.9547 35.496C16.2481 35.496 14.8401 34.9627 13.7307 33.896C12.6214 32.8293 12.0667 31.4853 12.0667 29.864C12.0667 26.3227 13.8801 23.336 17.5067 20.904C21.1334 18.472 25.9761 17.256 32.0347 17.256ZM23.0747 53.032C25.3787 49.448 27.2134 45.4373 28.5787 41C23.2881 41.4267 18.6161 43.112 14.5627 46.056C10.5521 49 8.54675 52.1573 8.54675 55.528C8.54675 56.8507 8.99475 57.9387 9.89075 58.792C10.8294 59.6453 12.0454 60.072 13.5387 60.072C15.0321 60.072 16.6534 59.432 18.4027 58.152C20.1521 56.9147 21.7094 55.208 23.0747 53.032ZM58.7562 37.992C59.8656 39.8267 60.4202 41.8533 60.4202 44.072C60.4202 47.528 59.2256 50.6213 56.8362 53.352C54.4469 56.04 51.6309 57.384 48.3882 57.384C45.9136 57.384 43.9722 56.68 42.5642 55.272C41.1989 53.8213 40.5162 51.8373 40.5162 49.32C40.5162 45.2667 42.0949 41.64 45.2522 38.44C48.4096 35.1973 51.9509 33.576 55.8762 33.576C56.6016 33.576 57.1136 33.5973 57.4122 33.64L57.6042 35.752C54.1909 35.752 51.3536 36.7333 49.0922 38.696C46.8309 40.6587 45.7002 43.176 45.7002 46.248C45.7002 48.0827 46.1482 49.576 47.0442 50.728C47.9402 51.8373 49.2416 52.392 50.9482 52.392C52.6976 52.392 54.0842 51.624 55.1082 50.088C56.1322 48.552 56.6442 46.76 56.6442 44.712C56.6442 42.6213 56.2389 40.7227 55.4282 39.016L58.7562 37.992ZM75.4637 37.992C76.5731 39.8267 77.1277 41.8533 77.1277 44.072C77.1277 47.528 75.9331 50.6213 73.5437 53.352C71.1544 56.04 68.3384 57.384 65.0957 57.384C62.6211 57.384 60.6797 56.68 59.2717 55.272C57.9064 53.8213 57.2237 51.8373 57.2237 49.32C57.2237 45.2667 58.8024 41.64 61.9597 38.44C65.1171 35.1973 68.6584 33.576 72.5837 33.576C73.3091 33.576 73.8211 33.5973 74.1197 33.64L74.3117 35.752C70.8984 35.752 68.0611 36.7333 65.7997 38.696C63.5384 40.6587 62.4077 43.176 62.4077 46.248C62.4077 48.0827 62.8557 49.576 63.7517 50.728C64.6477 51.8373 65.9491 52.392 67.6557 52.392C69.4051 52.392 70.7917 51.624 71.8157 50.088C72.8397 48.552 73.3517 46.76 73.3517 44.712C73.3517 42.6213 72.9464 40.7227 72.1357 39.016L75.4637 37.992ZM110.027 9.704L113.291 10.856L112.395 12.52C107.702 21.2667 103.713 29.736 100.427 37.928C98.2512 43.304 97.1632 47.336 97.1632 50.024C97.1632 50.7067 97.3339 51.2613 97.6752 51.688C98.0166 52.072 98.5499 52.264 99.2752 52.264C100.043 52.264 100.918 51.7733 101.899 50.792L103.051 51.88C102.497 53.1173 101.537 54.2693 100.171 55.336C98.8059 56.36 97.4832 56.872 96.2032 56.872C93.7286 56.872 92.4912 55.4213 92.4912 52.52C92.4912 50.8133 92.9606 48.1893 93.8992 44.648C88.8646 53.4373 83.9366 57.832 79.1152 57.832C77.4512 57.832 76.1286 57.32 75.1472 56.296C74.1659 55.272 73.6752 53.8853 73.6752 52.136C73.6752 49.3627 74.7846 46.4827 77.0032 43.496C79.2219 40.5093 81.9526 38.0773 85.1952 36.2C88.4379 34.28 91.4672 33.32 94.2832 33.32L94.4752 35.56C90.8059 36.0293 87.3712 37.6293 84.1712 40.36C81.0139 43.048 79.4352 45.8 79.4352 48.616C79.4352 49.8107 79.7552 50.7707 80.3952 51.496C81.0352 52.1787 81.8672 52.52 82.8912 52.52C84.9819 52.52 87.7126 50.28 91.0832 45.8C92.3206 44.1787 93.7286 41.8107 95.3072 38.696C96.9286 35.5813 98.2086 33.0853 99.1472 31.208C100.129 29.288 101.067 27.432 101.963 25.64C102.902 23.8053 104.118 21.416 105.611 18.472C107.105 15.4853 108.577 12.5627 110.027 9.704ZM118.257 29.864C115.868 29.864 114.673 28.904 114.673 26.984C114.673 25.9173 114.972 25.0213 115.569 24.296C116.167 23.5707 116.935 23.208 117.873 23.208C118.812 23.208 119.58 23.4853 120.177 24.04C120.775 24.5947 121.073 25.32 121.073 26.216C121.073 27.112 120.817 27.944 120.305 28.712C119.793 29.48 119.111 29.864 118.257 29.864ZM117.425 48.744L118.705 49.832C117.681 51.7947 116.316 53.48 114.609 54.888C112.945 56.2533 111.431 56.936 110.065 56.936C107.676 56.936 106.481 55.272 106.481 51.944C106.481 47.8053 108.188 42.408 111.601 35.752C112.369 34.3013 112.817 33.448 112.945 33.192L115.697 34.856C114.801 36.4773 113.692 39.0587 112.369 42.6C111.089 46.1413 110.449 48.424 110.449 49.448C110.449 50.4293 110.663 51.1333 111.089 51.56C111.516 51.9867 112.028 52.2 112.625 52.2C113.777 52.2 115.377 51.048 117.425 48.744ZM135.766 49.448L137.238 50.6C135.916 52.4347 134.102 53.9707 131.798 55.208C129.494 56.4027 127.254 57 125.078 57C122.902 57 121.153 56.36 119.83 55.08C118.508 53.8 117.846 52.1147 117.846 50.024C117.846 46.0987 119.916 42.2373 124.054 38.44C128.236 34.6427 132.46 32.744 136.726 32.744C139.542 32.744 140.95 33.8533 140.95 36.072C140.95 38.376 139.457 40.7013 136.47 43.048C133.526 45.3947 129.366 47.528 123.99 49.448C124.374 50.4293 124.972 51.1973 125.782 51.752C126.593 52.3067 127.425 52.584 128.278 52.584C130.113 52.584 132.609 51.5387 135.766 49.448ZM123.67 47.528C127.126 46.3333 130.092 44.84 132.566 43.048C135.041 41.256 136.278 39.6133 136.278 38.12C136.278 37.5653 136.065 37.0747 135.638 36.648C135.212 36.2213 134.721 36.008 134.166 36.008C132.161 36.008 129.985 37.2667 127.638 39.784C125.334 42.2587 124.012 44.84 123.67 47.528Z" fill="#FEFEFE"/>
<path d="M32.0347 17.256L32.0643 16.2564L32.0495 16.256H32.0347V17.256ZM47.2027 17.704L47.1732 18.7036L47.188 18.704H47.2027V17.704ZM50.0827 17.192L50.3668 18.1508L50.3778 18.1475L50.3888 18.144L50.0827 17.192ZM53.3467 17L52.5785 17.6402L52.6367 17.71L52.7066 17.7682L53.3467 17ZM52.5147 20.136L53.1079 20.9411L53.1213 20.9312L53.1344 20.9209L52.5147 20.136ZM49.3148 21.416L49.1247 20.4342L49.1103 20.437L49.096 20.4402L49.3148 21.416ZM42.7227 22.248V21.248H42.4118L42.1556 21.4243L42.7227 22.248ZM35.1068 37.736L34.1463 37.4575L33.7756 38.736H35.1068V37.736ZM42.9787 37.928L43.9778 37.9705L44.017 37.05L43.1028 36.9357L42.9787 37.928ZM42.8507 40.936L42.9173 41.9338L43.8117 41.8742L43.8498 40.9785L42.8507 40.936ZM39.9707 41L39.9378 41.9995L39.9543 42H39.9707V41ZM34.1467 40.808L34.1797 39.8085L33.4299 39.7838L33.1964 40.4968L34.1467 40.808ZM4.89875 62.184L5.59685 61.468L4.89875 62.184ZM10.2107 43.624L10.7747 44.4498L10.7793 44.4467L10.2107 43.624ZM29.6027 37.864L29.6305 38.8636L30.3407 38.8439L30.5558 38.1668L29.6027 37.864ZM38.7547 22.248L39.2903 23.0925L42.0088 21.3686L38.792 21.2487L38.7547 22.248ZM28.4507 21.864L28.488 20.8647L28.4694 20.864H28.4507V21.864ZM18.7867 23.528L18.3254 22.6408L18.318 22.6447L18.7867 23.528ZM16.8667 30.44L16.2226 31.2049L16.2347 31.2151L16.2471 31.2249L16.8667 30.44ZM21.0907 31.336L21.2012 32.3299L21.2443 32.3251L21.2869 32.3166L21.0907 31.336ZM22.6267 30.888L22.9631 31.8297L22.9807 31.8234L22.9981 31.8165L22.6267 30.888ZM23.9707 30.376L24.287 31.3247L24.287 31.3247L23.9707 30.376ZM27.2347 28.968L28.0127 28.3397L27.5072 27.7138L26.7875 28.0736L27.2347 28.968ZM28.5787 30.632L29.2859 31.3391L29.9217 30.7032L29.3567 30.0037L28.5787 30.632ZM13.7307 33.896L14.4239 33.1752L13.7307 33.896ZM17.5067 20.904L18.0637 21.7345L17.5067 20.904ZM23.0747 53.032L22.2335 52.4912L22.2277 52.5005L23.0747 53.032ZM28.5787 41L29.5345 41.2941L29.9682 39.8847L28.4984 40.0032L28.5787 41ZM14.5627 46.056L13.9751 45.2469L13.971 45.2499L14.5627 46.056ZM9.89075 58.792L9.20109 59.5161L9.20949 59.5241L9.21807 59.5319L9.89075 58.792ZM18.4027 58.152L17.8253 57.3356L17.8187 57.3402L17.8122 57.345L18.4027 58.152ZM32.0052 18.2556L47.1732 18.7036L47.2323 16.7044L32.0643 16.2564L32.0052 18.2556ZM47.2027 18.704C48.1052 18.704 49.1684 18.5059 50.3668 18.1508L49.7987 16.2332C48.6931 16.5608 47.8363 16.704 47.2027 16.704V18.704ZM50.3888 18.144C50.974 17.9559 51.4449 17.8198 51.8071 17.7317C52.1904 17.6384 52.3857 17.616 52.4507 17.616V15.616C52.1318 15.616 51.7405 15.6896 51.3344 15.7883C50.9073 15.8922 50.3861 16.0441 49.7767 16.24L50.3888 18.144ZM52.4507 17.616C52.5316 17.616 52.5645 17.6293 52.5688 17.6311C52.5714 17.6323 52.5714 17.6325 52.5707 17.632C52.5701 17.6315 52.5728 17.6333 52.5785 17.6402L54.115 16.3598C53.6815 15.8397 53.081 15.616 52.4507 15.616V17.616ZM52.7066 17.7682C52.72 17.7794 52.7258 17.7864 52.7272 17.7883C52.7286 17.79 52.7278 17.7893 52.7268 17.7871C52.7258 17.7849 52.7264 17.7854 52.7275 17.7906C52.7286 17.7962 52.7308 17.8093 52.7308 17.832H54.7308C54.7308 17.2022 54.4772 16.6404 53.9869 16.2318L52.7066 17.7682ZM52.7308 17.832C52.7308 18.3728 52.5069 18.8681 51.8951 19.3511L53.1344 20.9209C54.1439 20.1239 54.7308 19.0832 54.7308 17.832H52.7308ZM51.9215 19.3309C51.2638 19.8156 50.3484 20.1974 49.1247 20.4342L49.5048 22.3978C50.9264 22.1226 52.1444 21.651 53.1079 20.9411L51.9215 19.3309ZM49.096 20.4402C46.6717 20.9836 44.5501 21.248 42.7227 21.248V23.248C44.7354 23.248 47.0084 22.9577 49.5335 22.3918L49.096 20.4402ZM42.1556 21.4243C40.6398 22.468 39.2615 24.395 37.9694 27.0227C36.6644 29.6765 35.3922 33.1615 34.1463 37.4575L36.0672 38.0145C37.296 33.7772 38.5304 30.4142 39.7641 27.9053C41.0107 25.3703 42.203 23.82 43.2898 23.0716L42.1556 21.4243ZM35.1068 38.736C39.3551 38.736 41.9067 38.8018 42.8547 38.9203L43.1028 36.9357C42.0028 36.7982 39.3064 36.736 35.1068 36.736V38.736ZM41.9797 37.8855L41.8517 40.8935L43.8498 40.9785L43.9778 37.9705L41.9797 37.8855ZM42.7842 39.9382C42.1787 39.9786 41.2458 40 39.9707 40V42C41.2557 42 42.2428 41.9787 42.9173 41.9338L42.7842 39.9382ZM40.0037 40.0005L34.1797 39.8085L34.1138 41.8075L39.9378 41.9995L40.0037 40.0005ZM33.1964 40.4968C30.8397 47.6932 27.6819 53.3552 23.7543 57.5309L25.2112 58.9011C29.3902 54.4581 32.6752 48.5148 35.0971 41.1192L33.1964 40.4968ZM23.7543 57.5309C19.8288 61.7043 15.7875 63.68 11.6187 63.68V65.68C16.4953 65.68 21.03 63.3464 25.2112 58.9011L23.7543 57.5309ZM11.6187 63.68C9.06034 63.68 7.08628 62.9202 5.59685 61.468L4.20065 62.9C6.12455 64.7758 8.63049 65.68 11.6187 65.68V63.68ZM5.59685 61.468C4.11185 60.0201 3.33875 58.0959 3.33875 55.592H1.33875C1.33875 58.5495 2.27232 61.0199 4.20065 62.9L5.59685 61.468ZM3.33875 55.592C3.33875 51.6591 5.66935 47.9364 10.7747 44.4498L9.64679 42.7982C4.25615 46.4796 1.33875 50.7356 1.33875 55.592H3.33875ZM10.7793 44.4467C15.8379 40.9508 22.1041 39.0727 29.6305 38.8636L29.575 36.8644C21.7414 37.082 15.0796 39.0438 9.64223 42.8013L10.7793 44.4467ZM30.5558 38.1668C33.1509 29.9985 36.115 25.1061 39.2903 23.0925L38.2192 21.4035C34.3971 23.8272 31.2599 29.3455 28.6497 37.5612L30.5558 38.1668ZM38.792 21.2487L28.488 20.8647L28.4135 22.8633L38.7175 23.2473L38.792 21.2487ZM28.4507 20.864C24.0892 20.864 20.6735 21.4197 18.3254 22.6408L19.2481 24.4152C21.1666 23.4176 24.1936 22.864 28.4507 22.864V20.864ZM18.318 22.6447C16.0114 23.8686 14.6507 25.6286 14.6507 27.944H16.6507C16.6507 26.5901 17.3807 25.4061 19.2555 24.4113L18.318 22.6447ZM14.6507 27.944C14.6507 29.2461 15.2068 30.3495 16.2226 31.2049L17.5109 29.6751C16.9053 29.1652 16.6507 28.6046 16.6507 27.944H14.6507ZM16.2471 31.2249C17.1852 31.9655 18.2078 32.4 19.2987 32.4V30.4C18.7684 30.4 18.1697 30.1945 17.4864 29.6551L16.2471 31.2249ZM19.2987 32.4C20.1155 32.4 20.7591 32.379 21.2012 32.3299L20.9803 30.3421C20.6544 30.3783 20.1034 30.4 19.2987 30.4V32.4ZM21.2869 32.3166C21.7773 32.2185 22.3387 32.0527 22.9631 31.8297L22.2904 29.9463C21.7201 30.1499 21.2575 30.2828 20.8946 30.3554L21.2869 32.3166ZM22.9981 31.8165C23.6393 31.56 24.0623 31.3996 24.287 31.3247L23.6545 29.4273C23.3672 29.5231 22.8941 29.704 22.2554 29.9595L22.9981 31.8165ZM24.287 31.3247C25.2444 31.0055 26.3788 30.514 27.682 29.8624L26.7875 28.0736C25.5307 28.702 24.4891 29.1491 23.6545 29.4273L24.287 31.3247ZM26.4568 29.5963L27.8008 31.2603L29.3567 30.0037L28.0127 28.3397L26.4568 29.5963ZM27.8716 29.9249C24.7775 33.0191 21.479 34.496 17.9547 34.496V36.496C22.1105 36.496 25.8947 34.7303 29.2859 31.3391L27.8716 29.9249ZM17.9547 34.496C16.4758 34.496 15.3259 34.0425 14.4239 33.1752L13.0376 34.6168C14.3543 35.8828 16.0203 36.496 17.9547 36.496V34.496ZM14.4239 33.1752C13.522 32.308 13.0667 31.2296 13.0667 29.864H11.0667C11.0667 31.7411 11.7208 33.3506 13.0376 34.6168L14.4239 33.1752ZM13.0667 29.864C13.0667 26.7357 14.6405 24.0301 18.0637 21.7345L16.9498 20.0735C13.1196 22.6419 11.0667 25.9097 11.0667 29.864H13.0667ZM18.0637 21.7345C21.4732 19.4482 26.1001 18.256 32.0347 18.256V16.256C25.852 16.256 20.7937 17.4958 16.9498 20.0735L18.0637 21.7345ZM23.9159 53.5728C26.2734 49.9056 28.1448 45.8107 29.5345 41.2941L27.623 40.7059C26.282 45.0639 24.4841 48.9904 22.2336 52.4912L23.9159 53.5728ZM28.4984 40.0032C23.0359 40.4438 18.186 42.1884 13.9751 45.2469L15.1504 46.8651C19.0461 44.0356 23.5402 42.4096 28.6591 41.9968L28.4984 40.0032ZM13.971 45.2499C9.83164 48.2883 7.54675 51.708 7.54675 55.528H9.54675C9.54675 52.6067 11.2725 49.7117 15.1545 46.8621L13.971 45.2499ZM7.54675 55.528C7.54675 57.1033 8.09216 58.46 9.20109 59.5161L10.5804 58.0679C9.89734 57.4173 9.54675 56.5981 9.54675 55.528H7.54675ZM9.21807 59.5319C10.3727 60.5816 11.8434 61.072 13.5387 61.072V59.072C12.2474 59.072 11.2861 58.709 10.5634 58.0521L9.21807 59.5319ZM13.5387 61.072C15.3209 61.072 17.1468 60.3101 18.9933 58.959L17.8122 57.345C16.16 58.5539 14.7432 59.072 13.5387 59.072V61.072ZM18.9802 58.9684C20.8565 57.6413 22.5 55.8296 23.9218 53.5635L22.2277 52.5005C20.9189 54.5864 19.4476 56.1881 17.8253 57.3356L18.9802 58.9684ZM58.7562 37.992L59.612 37.4746L59.2081 36.8067L58.4622 37.0362L58.7562 37.992ZM56.8363 53.352L57.5837 54.0164L57.5888 54.0105L56.8363 53.352ZM42.5642 55.272L41.836 55.9574L41.8464 55.9684L41.8571 55.9791L42.5642 55.272ZM45.2522 38.44L45.9641 39.1424L45.9687 39.1376L45.2522 38.44ZM57.4122 33.64L58.4081 33.5495L58.3365 32.7619L57.5537 32.6501L57.4122 33.64ZM57.6042 35.752V36.752H58.6993L58.6001 35.6615L57.6042 35.752ZM47.0442 50.728L46.2549 51.3419L46.2605 51.3492L46.2663 51.3563L47.0442 50.728ZM55.1082 50.088L54.2762 49.5333H54.2762L55.1082 50.088ZM55.4282 39.016L55.1342 38.0602L54.0287 38.4004L54.525 39.4451L55.4282 39.016ZM57.9005 38.5094C58.9121 40.1824 59.4202 42.0291 59.4202 44.072H61.4202C61.4202 41.6776 60.8191 39.4709 59.612 37.4746L57.9005 38.5094ZM59.4202 44.072C59.4202 47.2729 58.3222 50.1352 56.0837 52.6935L57.5888 54.0105C60.129 51.1075 61.4202 47.7831 61.4202 44.072H59.4202ZM56.0888 52.6876C53.8661 55.1882 51.3122 56.384 48.3882 56.384V58.384C51.9496 58.384 55.0277 56.8918 57.5837 54.0164L56.0888 52.6876ZM48.3882 56.384C46.1107 56.384 44.4486 55.7421 43.2714 54.5649L41.8571 55.9791C43.4959 57.6179 45.7165 58.384 48.3882 58.384V56.384ZM43.2924 54.5866C42.1444 53.3669 41.5162 51.6526 41.5162 49.32H39.5162C39.5162 52.022 40.2534 54.2758 41.836 55.9574L43.2924 54.5866ZM41.5162 49.32C41.5162 45.5593 42.9694 42.1775 45.9641 39.1423L44.5404 37.7377C41.2205 41.1025 39.5162 44.974 39.5162 49.32H41.5162ZM45.9687 39.1376C48.9691 36.0561 52.2626 34.576 55.8762 34.576V32.576C51.6392 32.576 47.85 34.3386 44.5358 37.7424L45.9687 39.1376ZM55.8762 34.576C56.6015 34.576 57.0498 34.5984 57.2708 34.6299L57.5537 32.6501C57.1774 32.5963 56.6017 32.576 55.8762 32.576V34.576ZM56.4164 33.7305L56.6084 35.8425L58.6001 35.6615L58.4081 33.5495L56.4164 33.7305ZM57.6042 34.752C53.986 34.752 50.9054 35.7982 48.4368 37.9408L49.7477 39.4512C51.8018 37.6684 54.3959 36.752 57.6042 36.752V34.752ZM48.4368 37.9408C45.9502 40.099 44.7002 42.8949 44.7002 46.248H46.7002C46.7002 43.4571 47.7117 41.2184 49.7477 39.4512L48.4368 37.9408ZM44.7002 46.248C44.7002 48.2469 45.1905 49.9734 46.2549 51.3419L47.8336 50.1141C47.106 49.1786 46.7002 47.9185 46.7002 46.248H44.7002ZM46.2663 51.3563C47.3901 52.7477 49.0055 53.392 50.9482 53.392V51.392C49.4777 51.392 48.4904 50.927 47.8222 50.0997L46.2663 51.3563ZM50.9482 53.392C53.0534 53.392 54.7431 52.4385 55.9403 50.6427L54.2762 49.5333C53.4254 50.8095 52.3418 51.392 50.9482 51.392V53.392ZM55.9403 50.6427C57.0856 48.9247 57.6442 46.935 57.6442 44.712H55.6442C55.6442 46.585 55.1789 48.1793 54.2762 49.5333L55.9403 50.6427ZM57.6442 44.712C57.6442 42.4889 57.2124 40.4414 56.3315 38.5869L54.525 39.4451C55.2654 41.0039 55.6442 42.7538 55.6442 44.712H57.6442ZM55.7223 39.9718L59.0503 38.9478L58.4622 37.0362L55.1342 38.0602L55.7223 39.9718ZM75.4637 37.992L76.3195 37.4746L75.9156 36.8067L75.1697 37.0362L75.4637 37.992ZM73.5437 53.352L74.2912 54.0164L74.2963 54.0105L73.5437 53.352ZM59.2717 55.272L58.5435 55.9574L58.5539 55.9684L58.5646 55.9791L59.2717 55.272ZM61.9597 38.44L62.6716 39.1424L62.6762 39.1376L61.9597 38.44ZM74.1198 33.64L75.1156 33.5495L75.044 32.7619L74.2612 32.6501L74.1198 33.64ZM74.3118 35.752V36.752H75.4068L75.3076 35.6615L74.3118 35.752ZM63.7517 50.728L62.9624 51.3419L62.968 51.3492L62.9738 51.3563L63.7517 50.728ZM71.8158 50.088L70.9837 49.5333L71.8158 50.088ZM72.1357 39.016L71.8417 38.0602L70.7362 38.4004L71.2325 39.4451L72.1357 39.016ZM74.608 38.5094C75.6196 40.1824 76.1277 42.0291 76.1277 44.072H78.1277C78.1277 41.6776 77.5266 39.4709 76.3195 37.4746L74.608 38.5094ZM76.1277 44.072C76.1277 47.2729 75.0297 50.1352 72.7912 52.6935L74.2963 54.0105C76.8365 51.1075 78.1277 47.7831 78.1277 44.072H76.1277ZM72.7963 52.6876C70.5736 55.1882 68.0197 56.384 65.0957 56.384V58.384C68.6571 58.384 71.7352 56.8918 74.2912 54.0164L72.7963 52.6876ZM65.0957 56.384C62.8182 56.384 61.1561 55.7421 59.9789 54.5649L58.5646 55.9791C60.2034 57.6179 62.424 58.384 65.0957 58.384V56.384ZM59.9999 54.5866C58.8519 53.3669 58.2237 51.6526 58.2237 49.32H56.2237C56.2237 52.022 56.9609 54.2758 58.5435 55.9574L59.9999 54.5866ZM58.2237 49.32C58.2237 45.5593 59.6769 42.1775 62.6716 39.1423L61.2479 37.7377C57.928 41.1025 56.2237 44.974 56.2237 49.32H58.2237ZM62.6762 39.1376C65.6767 36.0561 68.9701 34.576 72.5837 34.576V32.576C68.3467 32.576 64.5575 34.3386 61.2433 37.7424L62.6762 39.1376ZM72.5837 34.576C73.309 34.576 73.7573 34.5984 73.9783 34.6299L74.2612 32.6501C73.8849 32.5963 73.3092 32.576 72.5837 32.576V34.576ZM73.1239 33.7305L73.3159 35.8425L75.3076 35.6615L75.1156 33.5495L73.1239 33.7305ZM74.3118 34.752C70.6935 34.752 67.6129 35.7982 65.1443 37.9408L66.4552 39.4512C68.5093 37.6684 71.1034 36.752 74.3118 36.752V34.752ZM65.1443 37.9408C62.6577 40.099 61.4077 42.8949 61.4077 46.248H63.4077C63.4077 43.4571 64.4192 41.2184 66.4552 39.4512L65.1443 37.9408ZM61.4077 46.248C61.4077 48.2469 61.898 49.9734 62.9624 51.3419L64.5411 50.1141C63.8135 49.1786 63.4077 47.9185 63.4077 46.248H61.4077ZM62.9738 51.3563C64.0976 52.7477 65.713 53.392 67.6557 53.392V51.392C66.1852 51.392 65.1979 50.927 64.5297 50.0997L62.9738 51.3563ZM67.6557 53.392C69.7609 53.392 71.4506 52.4385 72.6478 50.6427L70.9837 49.5333C70.1329 50.8095 69.0493 51.392 67.6557 51.392V53.392ZM72.6478 50.6427C73.7931 48.9247 74.3517 46.935 74.3517 44.712H72.3517C72.3517 46.585 71.8864 48.1793 70.9837 49.5333L72.6478 50.6427ZM74.3517 44.712C74.3517 42.4889 73.9199 40.4414 73.039 38.5869L71.2325 39.4451C71.9729 41.0039 72.3517 42.7538 72.3517 44.712H74.3517ZM72.4298 39.9718L75.7578 38.9478L75.1697 37.0362L71.8417 38.0602L72.4298 39.9718ZM110.027 9.704L110.36 8.76101L109.533 8.46896L109.135 9.25147L110.027 9.704ZM113.291 10.856L114.172 11.3301L114.725 10.3017L113.624 9.91301L113.291 10.856ZM112.395 12.52L111.515 12.0459L111.514 12.0472L112.395 12.52ZM100.427 37.928L101.354 38.3032L101.355 38.3002L100.427 37.928ZM97.6752 51.688L96.8944 52.3127L96.9106 52.333L96.9278 52.3524L97.6752 51.688ZM101.899 50.792L102.586 50.065L101.879 49.3977L101.192 50.0849L101.899 50.792ZM103.051 51.88L103.964 52.2891L104.254 51.6408L103.738 51.153L103.051 51.88ZM100.171 55.336L100.771 56.136L100.779 56.1301L100.787 56.124L100.171 55.336ZM93.8992 44.648L94.8659 44.9042L93.0315 44.151L93.8992 44.648ZM75.1472 56.296L75.8692 55.6041L75.1472 56.296ZM77.0032 43.496L76.2005 42.8997L77.0032 43.496ZM85.1952 36.2L85.6963 37.0655L85.7047 37.0605L85.1952 36.2ZM94.2832 33.32L95.2796 33.2346L95.2012 32.32H94.2832V33.32ZM94.4753 35.56L94.6021 36.5519L95.5535 36.4302L95.4716 35.4746L94.4753 35.56ZM84.1712 40.36L84.8195 41.1214L84.8204 41.1207L84.1712 40.36ZM80.3952 51.496L79.6454 52.1576L79.6554 52.1689L79.6657 52.1799L80.3952 51.496ZM91.0832 45.8L90.2883 45.1933L90.2842 45.1988L91.0832 45.8ZM95.3072 38.696L94.4202 38.2342L94.4153 38.2439L95.3072 38.696ZM99.1472 31.208L98.2568 30.7529L98.2528 30.7608L99.1472 31.208ZM101.963 25.64L101.073 25.1845L101.069 25.1928L101.963 25.64ZM105.611 18.472L106.503 18.9244L106.506 18.9192L105.611 18.472ZM109.694 10.647L112.958 11.799L113.624 9.91301L110.36 8.76101L109.694 10.647ZM112.411 10.3819L111.515 12.0459L113.276 12.9941L114.172 11.3301L112.411 10.3819ZM111.514 12.0472C106.805 20.8225 102.8 29.3255 99.4991 37.5558L101.355 38.3002C104.625 30.1465 108.598 21.7108 113.276 12.9928L111.514 12.0472ZM99.5003 37.5528C97.319 42.9419 96.1632 47.1284 96.1632 50.024H98.1632C98.1632 47.5436 99.1835 43.6661 101.354 38.3032L99.5003 37.5528ZM96.1632 50.024C96.1632 50.8758 96.3788 51.6682 96.8944 52.3127L98.4561 51.0633C98.289 50.8545 98.1632 50.5375 98.1632 50.024H96.1632ZM96.9278 52.3524C97.5268 53.0262 98.3855 53.264 99.2752 53.264V51.264C98.7143 51.264 98.5063 51.1178 98.4227 51.0236L96.9278 52.3524ZM99.2752 53.264C100.455 53.264 101.575 52.53 102.606 51.4991L101.192 50.0849C100.26 51.0167 99.6318 51.264 99.2752 51.264V53.264ZM101.213 51.519L102.365 52.607L103.738 51.153L102.586 50.065L101.213 51.519ZM102.139 51.4709C101.667 52.5241 100.827 53.5545 99.5556 54.548L100.787 56.124C102.246 54.9842 103.327 53.7106 103.964 52.2891L102.139 51.4709ZM99.5712 54.536C98.3217 55.4732 97.2048 55.872 96.2032 55.872V57.872C97.7617 57.872 99.2901 57.2468 100.771 56.136L99.5712 54.536ZM96.2032 55.872C95.1653 55.872 94.5555 55.5752 94.1801 55.1351C93.7786 54.6644 93.4912 53.852 93.4912 52.52H91.4912C91.4912 54.0894 91.8225 55.4529 92.6584 56.4329C93.5203 57.4434 94.7665 57.872 96.2032 57.872V55.872ZM93.4912 52.52C93.4912 50.952 93.93 48.4348 94.8659 44.9042L92.9326 44.3918C91.9911 47.9439 91.4912 50.6747 91.4912 52.52H93.4912ZM93.0315 44.151C90.5423 48.4965 88.1144 51.6915 85.7617 53.7897C83.4128 55.8844 81.2024 56.832 79.1152 56.832V58.832C81.8494 58.832 84.5137 57.5823 87.0928 55.2823C89.6681 52.9858 92.2215 49.5888 94.767 45.145L93.0315 44.151ZM79.1152 56.832C77.6726 56.832 76.6292 56.3971 75.8692 55.6041L74.4253 56.9879C75.6279 58.2429 77.2299 58.832 79.1152 58.832V56.832ZM75.8692 55.6041C75.1058 54.8075 74.6752 53.6909 74.6752 52.136H72.6752C72.6752 54.0798 73.226 55.7365 74.4253 56.9879L75.8692 55.6041ZM74.6752 52.136C74.6752 49.6402 75.6721 46.9649 77.806 44.0923L76.2005 42.8997C73.897 46.0005 72.6752 49.0851 72.6752 52.136H74.6752ZM77.806 44.0923C79.9429 41.2158 82.5706 38.875 85.6963 37.0654L84.6942 35.3346C81.3346 37.2796 78.501 39.8029 76.2005 42.8997L77.806 44.0923ZM85.7047 37.0605C88.8436 35.2019 91.6973 34.32 94.2832 34.32V32.32C91.2372 32.32 88.0322 33.3581 84.6858 35.3395L85.7047 37.0605ZM93.2869 33.4054L93.4789 35.6454L95.4716 35.4746L95.2796 33.2346L93.2869 33.4054ZM94.3484 34.5681C90.4606 35.0653 86.8491 36.7603 83.5221 39.5993L84.8204 41.1207C87.8933 38.4984 91.1512 36.9933 94.6021 36.5519L94.3484 34.5681ZM83.523 39.5986C80.2502 42.3848 78.4352 45.3901 78.4352 48.616H80.4352C80.4352 46.2099 81.7776 43.7111 84.8195 41.1214L83.523 39.5986ZM78.4352 48.616C78.4352 49.9947 78.8087 51.2094 79.6454 52.1576L81.1451 50.8344C80.7018 50.332 80.4352 49.6266 80.4352 48.616H78.4352ZM79.6657 52.1799C80.5137 53.0845 81.6198 53.52 82.8912 53.52V51.52C82.1147 51.52 81.5568 51.2729 81.1248 50.8121L79.6657 52.1799ZM82.8912 53.52C84.2806 53.52 85.7101 52.7873 87.1415 51.6131C88.5935 50.4221 90.1736 48.6724 91.8823 46.4012L90.2842 45.1988C88.6223 47.4076 87.1517 49.0179 85.873 50.0668C84.5738 51.1327 83.5925 51.52 82.8912 51.52V53.52ZM91.8782 46.4067C93.1695 44.7146 94.6095 42.2846 96.1992 39.1481L94.4153 38.2439C92.8477 41.3367 91.4717 43.6427 90.2883 45.1933L91.8782 46.4067ZM96.1943 39.1577C97.8167 36.041 99.0995 33.5395 100.042 31.6552L98.2528 30.7608C97.3176 32.6311 96.0405 35.1217 94.4202 38.2343L96.1943 39.1577ZM100.038 31.6631C101.02 29.7407 101.96 27.882 102.858 26.0872L101.069 25.1928C100.174 26.982 99.2369 28.8353 98.2568 30.7529L100.038 31.6631ZM102.853 26.0955C103.793 24.2594 105.009 21.8689 106.503 18.9244L104.719 18.0196C103.226 20.9631 102.011 23.3513 101.073 25.1845L102.853 26.0955ZM106.506 18.9192C107.998 15.9342 109.469 13.0134 110.919 10.1565L109.135 9.25147C107.684 12.112 106.211 15.0364 104.717 18.0248L106.506 18.9192ZM115.569 24.296L114.797 23.6603V23.6603L115.569 24.296ZM120.177 24.04L120.858 23.3072L120.858 23.3072L120.177 24.04ZM120.305 28.712L119.473 28.1573V28.1573L120.305 28.712ZM117.425 48.744L118.073 47.9821L117.328 47.3486L116.678 48.0796L117.425 48.744ZM118.705 49.832L119.592 50.2946L119.961 49.587L119.353 49.0701L118.705 49.832ZM114.609 54.888L115.244 55.6611L115.246 55.6594L114.609 54.888ZM111.601 35.752L110.717 35.2841L110.711 35.2957L111.601 35.752ZM112.945 33.192L113.463 32.3363L112.535 31.7756L112.051 32.7448L112.945 33.192ZM115.697 34.856L116.572 35.3397L117.038 34.4979L116.215 34.0003L115.697 34.856ZM112.369 42.6L111.432 42.2501L111.429 42.2601L112.369 42.6ZM111.089 51.56L110.382 52.2671L111.089 51.56ZM118.257 28.864C117.17 28.864 116.54 28.6413 116.196 28.3645C115.893 28.1212 115.673 27.7248 115.673 26.984H113.673C113.673 28.1632 114.051 29.2067 114.943 29.9235C115.793 30.6067 116.955 30.864 118.257 30.864V28.864ZM115.673 26.984C115.673 26.1161 115.911 25.454 116.341 24.9317L114.797 23.6603C114.033 24.5887 113.673 25.7186 113.673 26.984H115.673ZM116.341 24.9317C116.749 24.4368 117.234 24.208 117.873 24.208V22.208C116.635 22.208 115.584 22.7046 114.797 23.6603L116.341 24.9317ZM117.873 24.208C118.601 24.208 119.112 24.4159 119.497 24.7728L120.858 23.3072C120.047 22.5548 119.023 22.208 117.873 22.208V24.208ZM119.497 24.7728C119.869 25.1183 120.073 25.5674 120.073 26.216H122.073C122.073 25.0726 121.68 24.071 120.858 23.3072L119.497 24.7728ZM120.073 26.216C120.073 26.9084 119.879 27.5483 119.473 28.1573L121.137 29.2667C121.755 28.3397 122.073 27.3156 122.073 26.216H120.073ZM119.473 28.1573C119.129 28.674 118.745 28.864 118.257 28.864V30.864C119.476 30.864 120.458 30.286 121.137 29.2667L119.473 28.1573ZM116.778 49.5059L118.058 50.5939L119.353 49.0701L118.073 47.9821L116.778 49.5059ZM117.819 49.3694C116.857 51.2135 115.576 52.7938 113.973 54.1166L115.246 55.6594C117.056 54.1662 118.506 52.3758 119.592 50.2946L117.819 49.3694ZM113.975 54.1149C112.393 55.4132 111.099 55.936 110.065 55.936V57.936C111.762 57.936 113.498 57.0935 115.244 55.6611L113.975 54.1149ZM110.065 55.936C109.131 55.936 108.566 55.629 108.19 55.1048C107.769 54.5193 107.481 53.5184 107.481 51.944H105.481C105.481 53.6976 105.791 55.1927 106.565 56.2712C107.383 57.411 108.61 57.936 110.065 57.936V55.936ZM107.481 51.944C107.481 48.0454 109.101 42.8198 112.491 36.2083L110.711 35.2957C107.275 41.9962 105.481 47.5653 105.481 51.944H107.481ZM112.485 36.2199C113.25 34.7754 113.705 33.9085 113.84 33.6392L112.051 32.7448C111.929 32.9875 111.489 33.8273 110.717 35.2841L112.485 36.2199ZM112.428 34.0477L115.18 35.7117L116.215 34.0003L113.463 32.3363L112.428 34.0477ZM114.822 34.3723C113.889 36.0612 112.758 38.6998 111.432 42.2501L113.306 42.9499C114.625 39.4175 115.714 36.8935 116.572 35.3397L114.822 34.3723ZM111.429 42.2601C110.785 44.0421 110.296 45.5236 109.966 46.698C109.645 47.8426 109.449 48.7859 109.449 49.448H111.449C111.449 49.0861 111.573 48.376 111.892 47.238C112.203 46.1297 112.674 44.6992 113.31 42.9399L111.429 42.2601ZM109.449 49.448C109.449 50.5358 109.68 51.5645 110.382 52.2671L111.796 50.8529C111.646 50.7021 111.449 50.3229 111.449 49.448H109.449ZM110.382 52.2671C110.994 52.8792 111.76 53.2 112.625 53.2V51.2C112.296 51.2 112.038 51.0942 111.796 50.8529L110.382 52.2671ZM112.625 53.2C113.514 53.2 114.412 52.768 115.274 52.1475C116.157 51.5117 117.124 50.5882 118.173 49.4084L116.678 48.0796C115.679 49.2038 114.822 50.0083 114.105 50.5245C113.367 51.056 112.889 51.2 112.625 51.2V53.2ZM135.766 49.448L136.383 48.6605L135.815 48.2163L135.214 48.6142L135.766 49.448ZM137.238 50.6L138.049 51.1848L138.612 50.405L137.855 49.8125L137.238 50.6ZM131.798 55.208L132.259 56.0958L132.265 56.0924L132.271 56.089L131.798 55.208ZM119.83 55.08L119.135 55.7986L119.83 55.08ZM124.054 38.44L123.382 37.6997L123.378 37.7032L124.054 38.44ZM136.47 43.048L135.852 42.2617L135.847 42.266L136.47 43.048ZM123.99 49.448L123.654 48.5063L122.684 48.8528L123.059 49.8124L123.99 49.448ZM125.782 51.752L125.218 52.5773L125.782 51.752ZM123.67 47.528L122.678 47.402L122.475 48.9991L123.997 48.4731L123.67 47.528ZM132.566 43.048L133.153 43.8579L132.566 43.048ZM127.638 39.784L126.907 39.1021L126.906 39.1026L127.638 39.784ZM135.15 50.2355L136.622 51.3875L137.855 49.8125L136.383 48.6605L135.15 50.2355ZM136.427 50.0152C135.206 51.7089 133.516 53.1503 131.325 54.327L132.271 56.089C134.688 54.7911 136.625 53.1604 138.049 51.1848L136.427 50.0152ZM131.338 54.3202C129.149 55.4553 127.066 56 125.078 56V58C127.443 58 129.84 57.35 132.259 56.0958L131.338 54.3202ZM125.078 56C123.111 56 121.628 55.4285 120.526 54.3614L119.135 55.7986C120.677 57.2915 122.693 58 125.078 58V56ZM120.526 54.3614C119.425 53.2961 118.846 51.884 118.846 50.024H116.846C116.846 52.3453 117.59 54.3039 119.135 55.7986L120.526 54.3614ZM118.846 50.024C118.846 46.482 120.707 42.868 124.73 39.1768L123.378 37.7032C119.124 41.6066 116.846 45.7154 116.846 50.024H118.846ZM124.727 39.1803C128.785 35.4948 132.78 33.744 136.726 33.744V31.744C132.139 31.744 127.686 33.7905 123.382 37.6997L124.727 39.1803ZM136.726 33.744C138.03 33.744 138.823 34.0054 139.275 34.3615C139.682 34.6818 139.95 35.1887 139.95 36.072H141.95C141.95 34.7366 141.515 33.5795 140.513 32.7905C139.557 32.0373 138.238 31.744 136.726 31.744V33.744ZM139.95 36.072C139.95 37.9153 138.752 39.9832 135.852 42.2617L137.088 43.8343C140.161 41.4195 141.95 38.8367 141.95 36.072H139.95ZM135.847 42.266C133.022 44.5182 128.974 46.6062 123.654 48.5063L124.327 50.3897C129.758 48.4498 134.031 46.2712 137.094 43.83L135.847 42.266ZM123.059 49.8124C123.511 50.9664 124.229 51.9009 125.218 52.5773L126.347 50.9267C125.714 50.4938 125.238 49.8923 124.921 49.0836L123.059 49.8124ZM125.218 52.5773C126.169 53.2281 127.194 53.584 128.278 53.584V51.584C127.656 51.584 127.017 51.3853 126.347 50.9267L125.218 52.5773ZM128.278 53.584C130.429 53.584 133.139 52.3871 136.318 50.2818L135.214 48.6142C132.079 50.6903 129.797 51.584 128.278 51.584V53.584ZM123.997 48.4731C127.528 47.2525 130.585 45.7175 133.153 43.8579L131.98 42.2381C129.598 43.9625 126.724 45.4142 123.344 46.5829L123.997 48.4731ZM133.153 43.8579C134.436 42.929 135.449 42.0031 136.149 41.0737C136.85 40.1432 137.278 39.1523 137.278 38.12H135.278C135.278 38.581 135.088 39.1582 134.551 39.8703C134.014 40.5835 133.172 41.375 131.98 42.2381L133.153 43.8579ZM137.278 38.12C137.278 37.2755 136.941 36.5369 136.345 35.9409L134.931 37.3551C135.188 37.6124 135.278 37.8552 135.278 38.12H137.278ZM136.345 35.9409C135.749 35.3448 135.011 35.008 134.166 35.008V37.008C134.431 37.008 134.674 37.0978 134.931 37.3551L136.345 35.9409ZM134.166 35.008C131.74 35.008 129.315 36.519 126.907 39.1021L128.37 40.4659C130.655 38.0144 132.582 37.008 134.166 37.008V35.008ZM126.906 39.1026C124.495 41.6922 123.052 44.4596 122.678 47.402L124.662 47.654C124.971 45.2204 126.173 42.8252 128.37 40.4654L126.906 39.1026Z" fill="#A67526"/>
<path d="M32.0347 15.256L47.2027 15.704C47.9707 15.704 48.9307 15.5333 50.0827 15.192C51.2774 14.808 52.0667 14.616 52.4507 14.616C52.8347 14.616 53.1334 14.744 53.3467 15C53.6028 15.2133 53.7308 15.4907 53.7308 15.832C53.7308 16.728 53.3254 17.496 52.5147 18.136C51.7041 18.7333 50.6374 19.16 49.3148 19.416C46.8401 19.9707 44.6427 20.248 42.7227 20.248C40.1201 22.04 37.5814 27.2027 35.1068 35.736C39.3307 35.736 41.9547 35.8 42.9787 35.928L42.8507 38.936C42.2107 38.9787 41.2507 39 39.9707 39L34.1467 38.808C31.7574 46.104 28.5361 51.9067 24.4827 56.216C20.4294 60.5253 16.1414 62.68 11.6187 62.68C8.84541 62.68 6.60541 61.848 4.89875 60.184C3.19208 58.52 2.33875 56.3227 2.33875 53.592C2.33875 49.1973 4.96275 45.208 10.2107 41.624C15.4587 37.9973 21.9227 36.0773 29.6027 35.864C32.2054 27.672 35.2561 22.4667 38.7547 20.248L28.4507 19.864C24.1414 19.864 20.9201 20.4187 18.7867 21.528C16.6961 22.6373 15.6507 24.1093 15.6507 25.944C15.6507 26.9253 16.0561 27.7573 16.8667 28.44C17.6774 29.08 18.4881 29.4 19.2987 29.4C20.1094 29.4 20.7067 29.3787 21.0907 29.336C21.5174 29.2507 22.0294 29.1013 22.6267 28.888C23.2667 28.632 23.7147 28.4613 23.9707 28.376C24.8667 28.0773 25.9547 27.608 27.2347 26.968L28.5787 28.632C25.3361 31.8747 21.7947 33.496 17.9547 33.496C16.2481 33.496 14.8401 32.9627 13.7307 31.896C12.6214 30.8293 12.0667 29.4853 12.0667 27.864C12.0667 24.3227 13.8801 21.336 17.5067 18.904C21.1334 16.472 25.9761 15.256 32.0347 15.256ZM23.0747 51.032C25.3787 47.448 27.2134 43.4373 28.5787 39C23.2881 39.4267 18.6161 41.112 14.5627 44.056C10.5521 47 8.54675 50.1573 8.54675 53.528C8.54675 54.8507 8.99475 55.9387 9.89075 56.792C10.8294 57.6453 12.0454 58.072 13.5387 58.072C15.0321 58.072 16.6534 57.432 18.4027 56.152C20.1521 54.9147 21.7094 53.208 23.0747 51.032ZM58.7562 35.992C59.8656 37.8267 60.4202 39.8533 60.4202 42.072C60.4202 45.528 59.2256 48.6213 56.8362 51.352C54.4469 54.04 51.6309 55.384 48.3882 55.384C45.9136 55.384 43.9722 54.68 42.5642 53.272C41.1989 51.8213 40.5162 49.8373 40.5162 47.32C40.5162 43.2667 42.0949 39.64 45.2522 36.44C48.4096 33.1973 51.9509 31.576 55.8762 31.576C56.6016 31.576 57.1136 31.5973 57.4122 31.64L57.6042 33.752C54.1909 33.752 51.3536 34.7333 49.0922 36.696C46.8309 38.6587 45.7002 41.176 45.7002 44.248C45.7002 46.0827 46.1482 47.576 47.0442 48.728C47.9402 49.8373 49.2416 50.392 50.9482 50.392C52.6976 50.392 54.0842 49.624 55.1082 48.088C56.1322 46.552 56.6442 44.76 56.6442 42.712C56.6442 40.6213 56.2389 38.7227 55.4282 37.016L58.7562 35.992ZM75.4637 35.992C76.5731 37.8267 77.1277 39.8533 77.1277 42.072C77.1277 45.528 75.9331 48.6213 73.5437 51.352C71.1544 54.04 68.3384 55.384 65.0957 55.384C62.6211 55.384 60.6797 54.68 59.2717 53.272C57.9064 51.8213 57.2237 49.8373 57.2237 47.32C57.2237 43.2667 58.8024 39.64 61.9597 36.44C65.1171 33.1973 68.6584 31.576 72.5837 31.576C73.3091 31.576 73.8211 31.5973 74.1197 31.64L74.3117 33.752C70.8984 33.752 68.0611 34.7333 65.7997 36.696C63.5384 38.6587 62.4077 41.176 62.4077 44.248C62.4077 46.0827 62.8557 47.576 63.7517 48.728C64.6477 49.8373 65.9491 50.392 67.6557 50.392C69.4051 50.392 70.7917 49.624 71.8157 48.088C72.8397 46.552 73.3517 44.76 73.3517 42.712C73.3517 40.6213 72.9464 38.7227 72.1357 37.016L75.4637 35.992ZM110.027 7.704L113.291 8.856L112.395 10.52C107.702 19.2667 103.713 27.736 100.427 35.928C98.2512 41.304 97.1632 45.336 97.1632 48.024C97.1632 48.7067 97.3339 49.2613 97.6752 49.688C98.0166 50.072 98.5499 50.264 99.2752 50.264C100.043 50.264 100.918 49.7733 101.899 48.792L103.051 49.88C102.497 51.1173 101.537 52.2693 100.171 53.336C98.8059 54.36 97.4832 54.872 96.2032 54.872C93.7286 54.872 92.4912 53.4213 92.4912 50.52C92.4912 48.8133 92.9606 46.1893 93.8992 42.648C88.8646 51.4373 83.9366 55.832 79.1152 55.832C77.4512 55.832 76.1286 55.32 75.1472 54.296C74.1659 53.272 73.6752 51.8853 73.6752 50.136C73.6752 47.3627 74.7846 44.4827 77.0032 41.496C79.2219 38.5093 81.9526 36.0773 85.1952 34.2C88.4379 32.28 91.4672 31.32 94.2832 31.32L94.4752 33.56C90.8059 34.0293 87.3712 35.6293 84.1712 38.36C81.0139 41.048 79.4352 43.8 79.4352 46.616C79.4352 47.8107 79.7552 48.7707 80.3952 49.496C81.0352 50.1787 81.8672 50.52 82.8912 50.52C84.9819 50.52 87.7126 48.28 91.0832 43.8C92.3206 42.1787 93.7286 39.8107 95.3072 36.696C96.9286 33.5813 98.2086 31.0853 99.1472 29.208C100.129 27.288 101.067 25.432 101.963 23.64C102.902 21.8053 104.118 19.416 105.611 16.472C107.105 13.4853 108.577 10.5627 110.027 7.704ZM118.257 27.864C115.868 27.864 114.673 26.904 114.673 24.984C114.673 23.9173 114.972 23.0213 115.569 22.296C116.167 21.5707 116.935 21.208 117.873 21.208C118.812 21.208 119.58 21.4853 120.177 22.04C120.775 22.5947 121.073 23.32 121.073 24.216C121.073 25.112 120.817 25.944 120.305 26.712C119.793 27.48 119.111 27.864 118.257 27.864ZM117.425 46.744L118.705 47.832C117.681 49.7947 116.316 51.48 114.609 52.888C112.945 54.2533 111.431 54.936 110.065 54.936C107.676 54.936 106.481 53.272 106.481 49.944C106.481 45.8053 108.188 40.408 111.601 33.752C112.369 32.3013 112.817 31.448 112.945 31.192L115.697 32.856C114.801 34.4773 113.692 37.0587 112.369 40.6C111.089 44.1413 110.449 46.424 110.449 47.448C110.449 48.4293 110.663 49.1333 111.089 49.56C111.516 49.9867 112.028 50.2 112.625 50.2C113.777 50.2 115.377 49.048 117.425 46.744ZM135.766 47.448L137.238 48.6C135.916 50.4347 134.102 51.9707 131.798 53.208C129.494 54.4027 127.254 55 125.078 55C122.902 55 121.153 54.36 119.83 53.08C118.508 51.8 117.846 50.1147 117.846 48.024C117.846 44.0987 119.916 40.2373 124.054 36.44C128.236 32.6427 132.46 30.744 136.726 30.744C139.542 30.744 140.95 31.8533 140.95 34.072C140.95 36.376 139.457 38.7013 136.47 41.048C133.526 43.3947 129.366 45.528 123.99 47.448C124.374 48.4293 124.972 49.1973 125.782 49.752C126.593 50.3067 127.425 50.584 128.278 50.584C130.113 50.584 132.609 49.5387 135.766 47.448ZM123.67 45.528C127.126 44.3333 130.092 42.84 132.566 41.048C135.041 39.256 136.278 37.6133 136.278 36.12C136.278 35.5653 136.065 35.0747 135.638 34.648C135.212 34.2213 134.721 34.008 134.166 34.008C132.161 34.008 129.985 35.2667 127.638 37.784C125.334 40.2587 124.012 42.84 123.67 45.528Z" fill="#BF8B37"/>
</svg>
